#!OML:ASF X:\für Bonn\!DataBase\2005_08_10_Bjorn_Final\c3d\bjorn.ASF
:FULLY-SPECIFIED
:DEGREES
76
root 0.590468 8.63079 3.10826 -187.421 -4.68609 180.015
lowerback 30.1452 1.38619 5.16208
upperback 15.059 -1.40884 -0.0733904
thorax 0.568738 -2.24103 -2.65167
lowerneck -19.5991 -7.30309 -0.151512
upperneck -5.49035 -10.9944 6.52716
head 1.93778 -5.82686 1.27578
rclavicle 1.46107e-014 -1.70955e-014
rhumerus 81.4902 -5.46978 -59.8192
rradius 12.4604
rwrist 28.8948
rhand -15.0238 13.481
rfingers 7.12502
rthumb 11.1418 -16.2032
lclavicle 1.46107e-014 -1.70955e-014
lhumerus 82.6509 -1.81973 43.1495
lradius 16.1164
lwrist -31.1403
lhand -18.2151 -6.56092
lfingers 7.12502
lthumb 8.06273 23.2653
rfemur -44.3482 -79.7659 -33.3299
rtibia 149.189
rfoot -60.4689 44.7616
rtoes -39.6118
lfemur -50.2873 74.3038 20.6722
ltibia 152.353
lfoot -49.0297 -31.9842
ltoes -38.3353
77
root 0.584319 8.49436 3.10494 -187.674 -4.64392 179.93
lowerback 30.2893 1.44548 5.07095
upperback 15.1605 -1.41218 -0.0773685
thorax 0.622722 -2.26945 -2.60406
lowerneck -19.8525 -7.22017 -0.225484
upperneck -5.3713 -10.8826 6.49009
head 2.02167 -5.76508 1.27259
rclavicle 8.94531e-016 7.95139e-015
rhumerus 81.4119 -5.403 -59.5742
rradius 12.3287
rwrist 28.9732
rhand -15.1674 13.4026
rfingers 7.12502
rthumb 11.0033 -16.2891
lclavicle 8.94531e-016 7.95139e-015
lhumerus 82.5194 -1.82649 43.2726
lradius 16.1747
lwrist -30.918
lhand -17.9939 -6.55561
lfingers 7.12502
lthumb 8.27619 23.2623
rfemur -19.3732 -82.2065 -59.9513
rtibia 150.177
rfoot -63.368 45.6522
rtoes -39.3888
lfemur -35.3112 78.0331 36.8827
ltibia 153.34
lfoot -51.4608 -32.2475
ltoes -38.6271
78
root 0.578575 8.38629 3.10275 -188.259 -4.61062 179.817
lowerback 30.8683 1.5147 5.01681
upperback 15.2865 -1.42863 -0.0996185
thorax 0.518332 -2.32736 -2.58393
lowerneck -20.1729 -7.15418 -0.252611
upperneck -5.11537 -10.795 6.40217
head 2.15943 -5.70643 1.23754
rclavicle -2.0276e-014 -1.49089e-015
rhumerus 81.265 -5.34016 -59.6453
rradius 12.22
rwrist 29.2857
rhand -15.2614 13.4095
rfingers 7.12502
rthumb 10.9126 -16.287
lclavicle -2.0276e-014 -1.49089e-015
lhumerus 82.5969 -1.87458 42.0803
lradius 15.8905
lwrist -29.6166
lhand -17.9645 -6.49485
lfingers 7.12502
lthumb 8.30461 23.3219
rfemur 10.4507 -81.7941 -91.1782
rtibia 150.909
rfoot -66.3065 46.2937
rtoes -39.162
lfemur -13.3208 79.4713 59.7583
ltibia 154.063
lfoot -53.7406 -32.3782
ltoes -38.7205
79
root 0.572108 8.29279 3.10142 -188.647 -4.56631 179.752
lowerback 31.2602 1.56415 4.99124
upperback 15.3806 -1.44024 -0.12131
thorax 0.459694 -2.36757 -2.58423
lowerneck -20.5544 -7.09626 -0.287339
upperneck -4.80621 -10.7164 6.29466
head 2.32681 -5.6495 1.19325
rclavicle 3.1408e-014 -1.69961e-014
rhumerus 81.067 -5.26446 -59.9411
rradius 12.1941
rwrist 29.8737
rhand -15.2882 13.3985
rfingers 7.12502
rthumb 10.8867 -16.2993
lclavicle 3.1408e-014 -1.69961e-014
lhumerus 82.6196 -1.90595 41.212
lradius 15.6623
lwrist -28.9582
lhand -17.8469 -6.4618
lfingers 7.12502
lthumb 8.41813 23.3504
rfemur 29.7818 -80.0717 -111.73
rtibia 151.552
rfoot -68.8138 46.6397
rtoes -38.9798
lfemur 7.1467 79.3222 81.1162
ltibia 154.702
lfoot -55.6284 -32.3771
ltoes -38.7804
80
root 0.565127 8.21796 3.09916 -188.785 -4.49895 179.77
lowerback 31.4117 1.60142 4.97817
upperback 15.4135 -1.42288 -0.0930786
thorax 0.435704 -2.37512 -2.54825
lowerneck -20.8559 -7.03437 -0.409429
upperneck -4.60387 -10.6155 6.24477
head 2.45243 -5.58675 1.19031
rclavicle -5.1684e-015 8.15017e-015
rhumerus 80.8059 -5.12769 -60.4039
rradius 12.2318
rwrist 30.5815
rhand -15.5619 13.4275
rfingers 7.12502
rthumb 10.6228 -16.284
lclavicle -5.1684e-015 8.15017e-015
lhumerus 82.5254 -1.93317 41.043
lradius 15.5032
lwrist -29.4954
lhand -17.5209 -6.46424
lfingers 7.12502
lthumb 8.73269 23.3351
rfemur 40.3369 -78.3339 -123.199
rtibia 152.087
rfoot -70.6675 46.7883
rtoes -38.827
lfemur 21.573 78.4918 96.414
ltibia 155.241
lfoot -57.0193 -32.375
ltoes -38.8414
81
root 0.557544 8.16255 3.09894 -188.725 -4.44245 179.818
lowerback 31.4172 1.60646 5.00642
upperback 15.3834 -1.39649 -0.092894
thorax 0.400673 -2.35702 -2.57046
lowerneck -21.0552 -6.97307 -0.529497
upperneck -4.52273 -10.5202 6.29298
head 2.52455 -5.53254 1.22564
rclavicle 7.95139e-016 1.13307e-014
rhumerus 80.4095 -4.9824 -60.9657
rradius 12.5176
rwrist 30.7641
rhand -15.5325 13.4071
rfingers 7.12502
rthumb 10.6512 -16.3029
lclavicle 7.95139e-016 1.13307e-014
lhumerus 82.4165 -2.04093 40.9258
lradius 15.3254
lwrist -30.237
lhand -17.3438 -6.43958
lfingers 7.12502
lthumb 8.90356 23.3526
rfemur 46.3865 -77.0938 -129.856
rtibia 152.501
rfoot -71.8728 46.6664
rtoes -38.8664
lfemur 30.9856 77.6689 106.526
ltibia 155.684
lfoot -58.0276 -32.1608
ltoes -39.0381
82
root 0.551066 8.12217 3.09959 -188.565 -4.40135 179.802
lowerback 31.3081 1.63258 4.92389
upperback 15.3507 -1.36457 -0.0835517
thorax 0.408591 -2.33671 -2.52342
lowerneck -21.1738 -6.90451 -0.650144
upperneck -4.54845 -10.4162 6.32067
head 2.54264 -5.48287 1.26106
rclavicle -1.2424e-014 3.97569e-016
rhumerus 80.0384 -4.8523 -61.7564
rradius 12.8015
rwrist 31.4265
rhand -15.1979 13.4326
rfingers 7.12502
rthumb 10.9739 -16.2606
lclavicle -1.2424e-014 3.97569e-016
lhumerus 82.2339 -2.13495 40.9867
lradius 15.2791
lwrist -30.7796
lhand -16.9414 -6.56638
lfingers 7.12502
lthumb 9.29191 23.2089
rfemur 50.5043 -76.2213 -134.471
rtibia 152.834
rfoot -72.6939 46.4515
rtoes -38.9039
lfemur 37.6036 76.974 113.578
ltibia 156.011
lfoot -58.7841 -31.8508
ltoes -39.3054
